<svg width="28" height="28" viewBox="0 0 28 28" fill="none" xmlns="http://www.w3.org/2000/svg">
<path d="M23.3333 9.33333L13.9999 15.1667L4.66659 9.33333V7L13.9999 12.8333L23.3333 7M23.3333 4.66666H4.66659C3.37159 4.66666 2.33325 5.705 2.33325 7V21C2.33325 21.6188 2.57908 22.2123 3.01667 22.6499C3.45425 23.0875 4.04775 23.3333 4.66659 23.3333H23.3333C23.9521 23.3333 24.5456 23.0875 24.9832 22.6499C25.4208 22.2123 25.6666 21.6188 25.6666 21V7C25.6666 6.38116 25.4208 5.78767 24.9832 5.35008C24.5456 4.9125 23.9521 4.66666 23.3333 4.66666Z" fill="white"/>
</svg>
