<svg width="28" height="28" viewBox="0 0 28 28" fill="none" xmlns="http://www.w3.org/2000/svg">
<path d="M13.9999 2.33334C12.4678 2.33334 10.9507 2.6351 9.53528 3.22141C8.11981 3.80771 6.83369 4.66707 5.75034 5.75042C3.56242 7.93835 2.33325 10.9058 2.33325 14C2.33325 19.1567 5.68159 23.5317 10.3133 25.0833C10.8966 25.1767 11.0833 24.815 11.0833 24.5V22.5283C7.85158 23.2283 7.16325 20.965 7.16325 20.965C6.62659 19.6117 5.86825 19.25 5.86825 19.25C4.80659 18.5267 5.94992 18.55 5.94992 18.55C7.11658 18.6317 7.73492 19.7517 7.73492 19.7517C8.74992 21.525 10.4649 21 11.1299 20.72C11.2349 19.9617 11.5383 19.4483 11.8649 19.1567C9.27492 18.865 6.55658 17.8617 6.55658 13.4167C6.55658 12.1217 6.99992 11.0833 7.75825 10.255C7.64159 9.96334 7.23325 8.75 7.87492 7.175C7.87492 7.175 8.85492 6.86 11.0833 8.365C12.0049 8.10834 13.0083 7.98 13.9999 7.98C14.9916 7.98 15.9949 8.10834 16.9166 8.365C19.1449 6.86 20.1249 7.175 20.1249 7.175C20.7666 8.75 20.3583 9.96334 20.2416 10.255C20.9999 11.0833 21.4433 12.1217 21.4433 13.4167C21.4433 17.8733 18.7133 18.8533 16.1116 19.145C16.5316 19.5067 16.9166 20.2183 16.9166 21.3033V24.5C16.9166 24.815 17.1033 25.1883 17.6983 25.0833C22.3299 23.52 25.6666 19.1567 25.6666 14C25.6666 12.4679 25.3648 10.9508 24.7785 9.53536C24.1922 8.1199 23.3328 6.83377 22.2495 5.75042C21.1661 4.66707 19.88 3.80771 18.4646 3.22141C17.0491 2.6351 15.532 2.33334 13.9999 2.33334Z" fill="white"/>
</svg>
